<svg width="31" height="22" viewBox="0 0 31 22" fill="none" xmlns="http://www.w3.org/2000/svg">
<g clip-path="url(#clip0_69390_904)">
<path d="M30.3 7.38892L26.8 7.58892L23.6 2.68892C23.5 2.48892 23.2 2.38892 23 2.38892C22.8 2.38892 22.5 2.48892 22.4 2.68892L19.2 7.58892H15.7C15.3 7.58892 15 7.88892 15 8.28892C15 8.38892 15 8.38892 15 8.48892L16.9 15.2889C17.1 15.9889 17.6 16.3889 18.3 16.3889H27.7C28.4 16.3889 28.9 15.9889 29.1 15.2889L31 8.38892C31 8.28892 31 8.28892 31 8.18892C31 7.78892 30.7 7.38892 30.3 7.38892ZM23 4.28892L25.2 7.48892H20.9L23 4.28892Z" fill="black"/>
</g>
<circle cx="10.5" cy="11.3889" r="10.5" fill="white"/>
<defs>
<clipPath id="clip0_69390_904">
<rect width="16" height="14" fill="white" transform="translate(15 2.38892)"/>
</clipPath>
</defs>
</svg>
