<svg width="137" height="165" viewBox="0 0 137 165" fill="none" xmlns="http://www.w3.org/2000/svg">
<g clip-path="url(#clip0_69960_768)">
<path d="M93.6329 39.2669C101.754 39.2669 108.578 33.7249 110.533 26.2179L116 27.0319C116.107 27.0479 116.215 27.0559 116.32 27.0559C117.371 27.0559 118.291 26.2859 118.451 25.2159C118.627 24.0379 117.812 22.9399 116.635 22.7649L111.094 21.9399C111.096 21.8939 111.098 21.8489 111.098 21.8019C111.098 21.6199 111.092 21.4399 111.084 21.2599C111.084 21.2599 110.633 14.7419 110.01 12.0229C109.389 9.30394 107.475 8.72694 107.475 8.72694C97.7049 6.51494 87.7029 6.28894 85.0999 6.28894C82.4969 6.28894 81.9419 7.62094 81.9419 7.62094L78.7919 12.6169L78.7819 12.6139C78.7059 12.7359 78.636 12.8589 78.563 12.9819L78.5359 13.0249C77.0339 15.6049 76.1689 18.6009 76.1689 21.8019C76.1679 31.4479 83.9879 39.2669 93.6329 39.2669Z" fill="white"/>
<path d="M132.035 78.576V78.574L105.293 76.406L96.0469 55.294C96.0469 55.294 95.5859 52.52 90.0389 46.818C84.4899 41.116 73.2399 43.428 73.2399 43.428C73.2399 43.428 49.3539 47.897 41.4949 49.746C33.6349 51.596 33.3269 59.609 33.3269 59.609L32.6949 64.128L17.5169 61.187C17.3259 61.15 17.1359 61.132 16.9489 61.132C15.5419 61.132 14.2779 62.132 14.0009 63.561L6.58995 101.803C6.27595 103.423 7.34395 105.005 8.96495 105.319L60.1609 115.242C60.2759 115.264 60.3909 115.266 60.5069 115.275H60.5089C59.7809 115.379 59.2179 115.24 59.2179 115.24L49.8179 113.391L46.7359 130.496L23.1759 150.859C21.4749 152.22 20.3839 154.312 20.3839 156.66C20.3839 160.764 23.7099 164.09 27.8129 164.09C29.8479 164.09 31.6909 163.272 33.0329 161.945C33.0329 161.945 60.7579 139.895 62.6079 138.354C64.4579 136.814 65.3809 134.501 65.3809 134.501C65.3809 134.501 69.922 120.553 71.16 117.627C72.0079 115.623 76.0919 116.548 76.0919 116.548L98.9769 125.179L106.592 154.241C106.674 154.871 106.834 155.475 107.065 156.045H107.067C108.165 158.773 110.837 160.699 113.956 160.699C118.06 160.699 121.386 157.372 121.386 153.269C121.386 152.67 121.314 152.09 121.179 151.533C120.337 146.568 116.575 124.487 115.618 119.707C114.54 114.313 110.997 112.773 110.997 112.773C110.997 112.773 89.729 101.215 88.3429 100.444C86.9559 99.674 87.2649 97.67 87.2649 97.67L91.1949 83.339L93.9679 89.195C93.9679 89.195 95.587 92.469 98.0519 92.586L131.409 93.406C135.513 93.406 138.839 90.08 138.839 85.975C138.838 82.086 135.846 78.896 132.035 78.576ZM60.6039 63.307L58.8149 69.187L68.7129 71.106L48.4989 67.189L49.0469 64.693L60.6039 63.307ZM58.3549 108.78L13.0509 99.999L19.3209 67.646L31.8629 70.077L30.2449 81.644L29.6049 86.05C29.5999 86.076 29.5969 86.106 29.5929 86.132L29.5749 86.259H29.5769C29.5369 86.571 29.5139 86.888 29.5139 87.21C29.5139 91.314 32.8409 94.639 36.9439 94.639C41.0469 94.639 44.3729 91.314 44.3729 87.21C44.3729 86.892 44.3519 86.58 44.3119 86.273L47.2129 73.05L64.6259 76.424L58.3549 108.78Z" fill="white"/>
<path d="M25.55 17.508H63.577C64.677 17.508 65.5771 16.612 65.5771 15.518C65.5771 14.424 64.677 13.528 63.577 13.528H25.55C24.45 13.528 23.55 14.424 23.55 15.518C23.55 16.612 24.45 17.508 25.55 17.508Z" fill="white"/>
<path d="M38.5798 23.5249C37.4798 23.5249 36.5798 24.4209 36.5798 25.5149C36.5798 26.6089 37.4798 27.5049 38.5798 27.5049H61.5388C62.6388 27.5049 63.5388 26.6089 63.5388 25.5149C63.5388 24.4199 62.6388 23.5249 61.5388 23.5249H38.5798Z" fill="white"/>
<path d="M87.5981 33.232C95.7191 33.232 102.543 27.69 104.498 20.183L109.965 20.997C110.072 21.013 110.18 21.021 110.285 21.021C111.336 21.021 112.256 20.251 112.416 19.181C112.592 18.003 111.777 16.905 110.6 16.73L105.059 15.905C105.061 15.859 105.063 15.814 105.063 15.767C105.063 15.585 105.057 15.405 105.049 15.225C105.049 15.225 104.598 8.70703 103.975 5.98803C103.354 3.26903 101.44 2.69203 101.44 2.69203C91.6701 0.480028 81.6681 0.254028 79.0641 0.254028C76.4601 0.254028 75.9061 1.58603 75.9061 1.58603L72.7561 6.58203L72.7461 6.57903C72.6701 6.70003 72.6001 6.82403 72.5271 6.94703L72.5001 6.99003C70.9981 9.57003 70.1331 12.566 70.1331 15.767C70.1331 25.413 77.9531 33.232 87.5981 33.232Z" fill="#3A3A3A"/>
<path d="M126 72.5411V72.5391L99.258 70.3711L90.012 49.2591C90.012 49.2591 89.551 46.4851 84.004 40.7831C78.455 35.0811 67.205 37.3931 67.205 37.3931C67.205 37.3931 43.319 41.8621 35.46 43.7101C27.6 45.5601 27.292 53.5731 27.292 53.5731L24.21 75.6091L23.57 80.0151C23.565 80.0411 23.562 80.0711 23.558 80.0971L23.54 80.2241H23.542C23.502 80.5361 23.479 80.8531 23.479 81.1751C23.479 85.2791 26.806 88.6041 30.909 88.6041C35.012 88.6041 38.338 85.2791 38.338 81.1751C38.338 80.8571 38.317 80.5451 38.277 80.2381L43.011 58.6571L54.568 57.2711L52.779 63.1511L62.677 65.0701C64.297 65.3831 65.365 66.9661 65.052 68.5871L57.64 106.83C57.363 108.26 56.099 109.26 54.692 109.26C54.62 109.26 54.546 109.244 54.472 109.239C53.744 109.343 53.181 109.204 53.181 109.204L43.781 107.355L40.699 124.46L17.139 144.823C15.438 146.184 14.347 148.276 14.347 150.624C14.347 154.728 17.673 158.054 21.776 158.054C23.811 158.054 25.654 157.236 26.996 155.909C26.996 155.909 54.721 133.859 56.571 132.318C58.421 130.778 59.344 128.465 59.344 128.465C59.344 128.465 63.885 114.517 65.123 111.591C65.971 109.587 70.055 110.512 70.055 110.512L92.94 119.143L100.555 148.205C100.637 148.835 100.797 149.439 101.028 150.009H101.03C102.128 152.737 104.8 154.663 107.919 154.663C112.023 154.663 115.349 151.336 115.349 147.233C115.349 146.634 115.277 146.054 115.142 145.497C114.3 140.532 110.538 118.451 109.581 113.671C108.503 108.277 104.96 106.737 104.96 106.737C104.96 106.737 83.693 95.1821 82.307 94.4101C80.92 93.6401 81.229 91.6361 81.229 91.6361L85.159 77.3051L87.932 83.1611C87.932 83.1611 89.551 86.4351 92.016 86.5521L125.373 87.3721C129.477 87.3721 132.803 84.0461 132.803 79.9411C132.803 76.0511 129.811 72.8601 126 72.5411Z" fill="#3A3A3A"/>
<path d="M54.4708 109.644H54.4728C54.5458 109.65 54.6198 109.665 54.6928 109.665C56.0998 109.665 57.3638 108.665 57.6408 107.235L65.0528 68.992C65.3658 67.371 64.2978 65.789 62.6778 65.475L42.4638 61.558L41.1778 67.42L58.5908 70.794L52.3198 103.148L7.01579 94.369L13.2858 62.016L25.8278 64.447L26.6598 58.497L11.4818 55.555C11.2908 55.518 11.1008 55.5 10.9138 55.5C9.50679 55.5 8.24279 56.5 7.96579 57.929L0.554789 96.173C0.240789 97.793 1.30879 99.375 2.92979 99.689L54.1258 109.612C54.2398 109.634 54.3548 109.635 54.4708 109.644Z" fill="#F0C42E"/>
<path d="M59.5419 9.48194C59.5419 10.5769 58.6419 11.4719 57.5419 11.4719H19.5149C18.4149 11.4719 17.5149 10.5759 17.5149 9.48194C17.5149 8.38794 18.4149 7.49194 19.5149 7.49194H57.5419C58.6419 7.49294 59.5419 8.38794 59.5419 9.48194Z" fill="#F0C52E"/>
<path d="M57.5039 19.48C57.5039 20.574 56.6039 21.47 55.5039 21.47H32.5439C31.4439 21.47 30.5439 20.574 30.5439 19.48C30.5439 18.385 31.4439 17.49 32.5439 17.49H55.5029C56.6039 17.49 57.5039 18.386 57.5039 19.48Z" fill="#F0C52E"/>
</g>
<defs>
<clipPath id="clip0_69960_768">
<rect width="136" height="164" fill="white" transform="translate(0.5 0.5)"/>
</clipPath>
</defs>
</svg>
