<svg width="145" height="37" fill="none" xmlns="http://www.w3.org/2000/svg"><path d="M27.219.389v35.3h-7.606v-2.4c-1.7 1.9-4.102 3.1-7.505 3.1-6.604 0-12.108-5.8-12.108-13.3 0-7.5 5.504-13.3 12.108-13.3 3.403 0 5.904 1.2 7.505 3.1V.389h7.606Zm-7.606 22.7c0-3.8-2.501-6.2-6.004-6.2-3.502 0-6.004 2.4-6.004 6.2 0 3.8 2.502 6.2 6.004 6.2 3.503-.1 6.004-2.4 6.004-6.2ZM43.73 29.589c2.101 0 3.803-.8 4.803-1.9l6.104 3.5c-2.501 3.4-6.204 5.2-11.007 5.2-8.606 0-14.01-5.8-14.01-13.3 0-7.5 5.404-13.3 13.41-13.3 7.404 0 12.808 5.7 12.808 13.3 0 1.1-.1 2.1-.3 3H37.626c1 2.6 3.302 3.5 6.104 3.5Zm4.603-9.1c-.8-2.9-3.102-4-5.404-4-2.902 0-4.803 1.4-5.504 4h10.908ZM82.156 10.489l-9.306 25.2h-8.606l-9.306-25.2h8.405l5.304 16 5.304-16h8.205ZM83.458 10.489h7.605v25.2h-7.605v-25.2ZM93.665 23.089c0-7.5 5.704-13.3 13.409-13.3 4.904 0 9.207 2.6 11.408 6.5l-6.604 3.8c-.901-1.8-2.702-2.8-4.904-2.8-3.302 0-5.704 2.4-5.704 5.8 0 3.5 2.402 5.8 5.704 5.8 2.202 0 4.103-1.1 4.904-2.8l6.604 3.8c-2.101 3.9-6.404 6.5-11.408 6.5-7.705 0-13.409-5.8-13.409-13.3ZM132.892 29.589c2.101 0 3.803-.8 4.803-1.9l6.104 3.5c-2.501 3.4-6.204 5.2-11.007 5.2-8.606 0-14.01-5.8-14.01-13.3 0-7.5 5.504-13.3 13.409-13.3 7.406 0 12.809 5.7 12.809 13.3 0 1.1-.1 2.1-.3 3h-17.912c1 2.6 3.302 3.5 6.104 3.5Zm4.703-9.1c-.8-2.9-3.102-4-5.404-4-2.902 0-4.803 1.4-5.503 4h10.907Z" fill="#000"/><path d="M83.458.389v10.1l7.605-10.1h-7.605Z" fill="#510094"/></svg>